<?xml version="1.0" standalone="no"?>
<!DOCTYPE svg PUBLIC "-//W3C//DTD SVG 20010904//EN"
 "http://www.w3.org/TR/2001/REC-SVG-20010904/DTD/svg10.dtd">
<svg version="1.0" xmlns="http://www.w3.org/2000/svg"
 width="260.000000pt" height="260.000000pt" viewBox="0 0 260.000000 260.000000"
 preserveAspectRatio="xMidYMid meet">
<metadata>
Created by potrace 1.11, written by Peter Selinger 2001-2013
</metadata>
<g transform="translate(0.000000,260.000000) scale(0.100000,-0.100000)"
fill="#000000" stroke="none">
<path d="M1150 2593 c-354 -54 -628 -203 -846 -460 -205 -241 -307 -535 -299
-863 2 -80 6 -156 9 -170 4 -14 9 -40 12 -58 3 -18 16 -68 29 -110 98 -329
308 -592 610 -765 76 -43 207 -100 257 -112 13 -3 64 -15 113 -27 122 -29 388
-31 514 -4 395 85 709 317 898 666 55 100 117 275 128 360 2 19 9 58 14 85 10
52 7 318 -4 370 -3 17 -11 50 -16 75 -68 314 -263 604 -534 792 -148 103 -361
187 -540 215 -40 6 -313 11 -345 6z m-175 -1178 c0 -341 -2 -386 -18 -435 -37
-110 -120 -165 -266 -176 l-64 -4 25 20 c38 29 41 72 42 537 2 458 7 423 -68
418 -26 -3 -36 1 -36 11 0 12 30 14 193 12 l192 -3 0 -380z m302 373 c0 -7 10
-51 23 -98 12 -47 23 -92 25 -100 2 -8 19 -76 39 -150 20 -74 48 -182 62 -240
15 -58 30 -108 33 -112 6 -7 38 124 135 557 15 66 29 128 32 138 5 15 23 17
195 17 153 0 189 -3 189 -14 0 -9 -11 -13 -37 -11 l-38 2 0 -473 0 -474 37 0
c25 0 38 -5 38 -13 0 -11 -43 -14 -220 -14 -187 0 -218 2 -209 14 7 7 19 13
28 12 49 -4 46 -30 46 445 0 396 -2 468 -12 423 -1 -7 -11 -50 -22 -97 -11
-47 -34 -143 -50 -215 -30 -132 -110 -472 -115 -490 -2 -5 -7 -29 -11 -53 l-8
-43 -90 3 -91 3 -48 180 c-53 196 -94 350 -138 520 -16 61 -40 152 -53 203
l-25 92 142 0 c107 0 143 -3 143 -12z m961 -8 c65 -40 89 -117 57 -183 -22
-45 -60 -70 -114 -74 -110 -10 -188 112 -131 205 42 68 124 91 188 52z m-1738
-698 c40 -25 49 -38 62 -85 10 -40 9 -51 -7 -86 -41 -92 -160 -115 -227 -44
-112 118 36 303 172 215z"/>
</g>
</svg>
