<svg xmlns="http://www.w3.org/2000/svg" xmlns:xlink="http://www.w3.org/1999/xlink" width="271.343" height="97.225" viewBox="0 0 271.343 97.225"><defs><linearGradient id="a" x1="1" y1="0.244" x2="0" y2="0.779" gradientUnits="objectBoundingBox"><stop offset="0" stop-color="#127fcf"/><stop offset="1" stop-color="#59b2f4"/></linearGradient></defs><g transform="translate(112.665 24.306)"><path d="M149.922,50.721a3.169,3.169,0,0,1-1.223-.229,1.949,1.949,0,0,1-.917-.611,1.266,1.266,0,0,1-.382-.917,1.541,1.541,0,0,1,.229-.841.941.941,0,0,1,.764-.382.952.952,0,0,1,.841.306,1.291,1.291,0,0,1,.229.764v.229c0,.076-.076.229-.076.306a.516.516,0,0,0,.459.306,1.345,1.345,0,0,0,.459.076,1.22,1.22,0,0,0,1.07-.611,4.476,4.476,0,0,0,.382-2.064V34.517a197185.593,197185.593,0,0,1-2.446.153V33.6h6.421v.764a1.939,1.939,0,0,0-1.223.306,1.606,1.606,0,0,0-.535.841,5.942,5.942,0,0,0-.153,1.223v7.8q0,3.44-.917,4.815A3.319,3.319,0,0,1,149.922,50.721Z" transform="translate(-147.4 -32.224)" fill="#061429"/><path d="M165.767,51.682a2.633,2.633,0,0,1-.076-.688c0-.229-.076-.459-.076-.611a6.97,6.97,0,0,1-1.758,1.3,4.46,4.46,0,0,1-1.987.459,4.08,4.08,0,0,1-2.752-.841,2.617,2.617,0,0,1-.917-2.064,2.8,2.8,0,0,1,.688-1.911,5.026,5.026,0,0,1,1.758-1.3,10.765,10.765,0,0,1,2.369-.764,14.074,14.074,0,0,1,2.522-.229V43.58a11.406,11.406,0,0,0-.153-1.605,2.33,2.33,0,0,0-.611-1.223,2.574,2.574,0,0,0-1.529-.535,5.194,5.194,0,0,0-1.452.229,2.254,2.254,0,0,0-1.07.994.661.661,0,0,1,.229.459.969.969,0,0,1,.076.459,1.451,1.451,0,0,1-.229.688.986.986,0,0,1-.841.382.941.941,0,0,1-.764-.382,1.541,1.541,0,0,1-.229-.841,2.088,2.088,0,0,1,.611-1.452,4.554,4.554,0,0,1,1.682-1.07A7.822,7.822,0,0,1,163.7,39.3a3.817,3.817,0,0,1,2.981,1.07,5.054,5.054,0,0,1,.917,3.363v6.191c0,.229-.076.535-.076.841a50333333439369.8,50333333439369.8,0,0,0,1.682-.153v.994h-3.44Zm-.229-5.885a6.366,6.366,0,0,0-1.682.229,10.825,10.825,0,0,0-1.682.535,3.04,3.04,0,0,0-1.223.917,2.2,2.2,0,0,0-.459,1.452,1.437,1.437,0,0,0,.611,1.3,1.929,1.929,0,0,0,1.3.459,3.644,3.644,0,0,0,1.682-.382,5.892,5.892,0,0,0,1.452-1.07V45.8Z" transform="translate(-149.945 -33.567)" fill="#061429"/><path d="M172.929,49.915v-.688a1.206,1.206,0,0,0,.994-.382,1.978,1.978,0,0,0,.306-1.07c0-.459.076-.917.076-1.529V34.093a3.429,3.429,0,0,1,.076-.841,79376.232,79376.232,0,0,1-1.682.153v-.994a9.3,9.3,0,0,0,1.605-.076,4.056,4.056,0,0,0,.841-.229,1.175,1.175,0,0,0,.459-.306h.688V43.189h.994l2.9-3.057.764-.764a4.2,4.2,0,0,1,.688-.535l-1.605.076v-.994h4.357V38.6a3.663,3.663,0,0,0-1.529.535,8.346,8.346,0,0,0-1.3.994,12.1,12.1,0,0,0-.994.994l-1.911,1.987a3.156,3.156,0,0,1,.841.535,6.892,6.892,0,0,1,.688.764l1.682,2.217c.076.076.229.306.459.535a9.542,9.542,0,0,1,.688.917,9.16,9.16,0,0,0,.917.841,1.423,1.423,0,0,0,.841.306v.688H182.56a1.834,1.834,0,0,1-1.3-.688c-.382-.459-.841-.994-1.3-1.529-.382-.611-.764-1.07-1.147-1.605a8.478,8.478,0,0,0-.917-1.223,10.319,10.319,0,0,0-.688-.841l-.994.076v4.127a2.6,2.6,0,0,1-.076.764h1.529v.994h-4.739Z" transform="translate(-153.362 -31.8)" fill="#061429"/><path d="M195.867,51.682a2.634,2.634,0,0,1-.076-.688c0-.229-.076-.459-.076-.611a6.97,6.97,0,0,1-1.758,1.3,4.46,4.46,0,0,1-1.987.459,4.08,4.08,0,0,1-2.752-.841,2.617,2.617,0,0,1-.917-2.064,2.794,2.794,0,0,1,.688-1.911,5.026,5.026,0,0,1,1.758-1.3,8.594,8.594,0,0,1,2.369-.764,14.073,14.073,0,0,1,2.522-.229V43.58a11.4,11.4,0,0,0-.153-1.605,2.33,2.33,0,0,0-.611-1.223,2.574,2.574,0,0,0-1.529-.535,5.194,5.194,0,0,0-1.452.229,2.254,2.254,0,0,0-1.07.994.661.661,0,0,1,.229.459.969.969,0,0,1,.076.459,1.451,1.451,0,0,1-.229.688.986.986,0,0,1-.841.382.941.941,0,0,1-.764-.382,1.541,1.541,0,0,1-.229-.841,2.088,2.088,0,0,1,.611-1.452,4.554,4.554,0,0,1,1.682-1.07A7.822,7.822,0,0,1,193.8,39.3a3.817,3.817,0,0,1,2.981,1.07,5.054,5.054,0,0,1,.917,3.363v6.191c0,.229-.076.535-.076.841a103188.039,103188.039,0,0,0,1.682-.153v.994h-3.44Zm-.229-5.885a6.366,6.366,0,0,0-1.682.229,10.823,10.823,0,0,0-1.682.535,3.04,3.04,0,0,0-1.223.917,2.2,2.2,0,0,0-.459,1.452,1.436,1.436,0,0,0,.611,1.3,1.929,1.929,0,0,0,1.3.459,3.644,3.644,0,0,0,1.682-.382,5.892,5.892,0,0,0,1.452-1.07V45.8Z" transform="translate(-157.038 -33.567)" fill="#061429"/><path d="M203.353,50.947a1.512,1.512,0,0,0,1.07-.382,1.494,1.494,0,0,0,.306-1.07c0-.459.076-.917.076-1.529V41.7a2.6,2.6,0,0,1,.076-.764H203.2V39.94h.764a3.352,3.352,0,0,0,1.452-.229l.688-.459h.688c0,.229.076.535.076.917a10.822,10.822,0,0,0,.076,1.452,4.436,4.436,0,0,1,.994-1.147,9.016,9.016,0,0,1,1.376-.994A4.165,4.165,0,0,1,211,39.1a1.877,1.877,0,0,1,1.147.382,1.38,1.38,0,0,1,.535,1.147,1.086,1.086,0,0,1-.153.459,1.123,1.123,0,0,1-.382.459.934.934,0,0,1-.688.229,1.185,1.185,0,0,1-1.07-1.376,2.42,2.42,0,0,0-1.223.306,4.662,4.662,0,0,0-1.223.917A6.359,6.359,0,0,0,206.945,43v6.726a2.6,2.6,0,0,1-.076.764H208.4v.994h-4.892v-.535Z" transform="translate(-160.549 -33.52)" fill="#061429"/><path d="M220.415,52.041a6.3,6.3,0,0,1-2.14-.306,5.7,5.7,0,0,1-1.529-.764l.076.841h-.994l-.153-4.127h.764a3.4,3.4,0,0,0,.535,1.758,3.335,3.335,0,0,0,1.3,1.223,3.273,3.273,0,0,0,1.682.459,3.462,3.462,0,0,0,1.223-.229,2.2,2.2,0,0,0,.994-.611,1.331,1.331,0,0,0,.382-1.07,1.878,1.878,0,0,0-.382-1.147,2.967,2.967,0,0,0-1.07-.764,10.826,10.826,0,0,0-1.376-.611c-.459-.229-.994-.382-1.452-.611a7.258,7.258,0,0,1-1.3-.764,3.33,3.33,0,0,1-.994-1.07,2.955,2.955,0,0,1-.153-2.6,8.362,8.362,0,0,1,.611-1.147,3.041,3.041,0,0,1,1.223-.917,5.112,5.112,0,0,1,1.987-.382,5.194,5.194,0,0,1,1.452.229,3.382,3.382,0,0,1,1.529.841l-.076-.917h.994v4.28h-.764a4.108,4.108,0,0,0-.382-1.605,3.294,3.294,0,0,0-.994-1.3,2.47,2.47,0,0,0-1.682-.535,2.548,2.548,0,0,0-1.758.535,1.75,1.75,0,0,0-.611,1.3,1.614,1.614,0,0,0,.459,1.223,3.822,3.822,0,0,0,1.223.841,16.825,16.825,0,0,0,1.605.688,12.436,12.436,0,0,1,1.758.841,4.4,4.4,0,0,1,1.452,1.147,2.68,2.68,0,0,1,.535,1.758,3.407,3.407,0,0,1-.611,1.987,3.256,3.256,0,0,1-1.529,1.147A3.433,3.433,0,0,1,220.415,52.041Z" transform="translate(-163.472 -33.544)" fill="#061429"/><path d="M235.767,51.682a2.632,2.632,0,0,1-.076-.688c0-.229-.076-.459-.076-.611a6.97,6.97,0,0,1-1.758,1.3,4.46,4.46,0,0,1-1.987.459,4.08,4.08,0,0,1-2.752-.841,2.617,2.617,0,0,1-.917-2.064,2.794,2.794,0,0,1,.688-1.911,5.026,5.026,0,0,1,1.758-1.3,8.594,8.594,0,0,1,2.369-.764,14.073,14.073,0,0,1,2.522-.229V43.58a11.406,11.406,0,0,0-.153-1.605,2.33,2.33,0,0,0-.611-1.223,2.574,2.574,0,0,0-1.529-.535,5.194,5.194,0,0,0-1.452.229,2.254,2.254,0,0,0-1.07.994.661.661,0,0,1,.229.459.97.97,0,0,1,.076.459,1.451,1.451,0,0,1-.229.688.986.986,0,0,1-.841.382.941.941,0,0,1-.764-.382,1.541,1.541,0,0,1-.229-.841,2.088,2.088,0,0,1,.612-1.452,4.553,4.553,0,0,1,1.682-1.07A7.822,7.822,0,0,1,233.7,39.3a3.817,3.817,0,0,1,2.981,1.07,5.054,5.054,0,0,1,.917,3.363v6.191c0,.229-.076.535-.076.841a45300000095693.36,45300000095693.36,0,0,0,1.682-.153v.994h-3.44Zm-.229-5.885a6.367,6.367,0,0,0-1.682.229,10.823,10.823,0,0,0-1.682.535,3.04,3.04,0,0,0-1.223.917,2.2,2.2,0,0,0-.459,1.452,1.436,1.436,0,0,0,.611,1.3,1.928,1.928,0,0,0,1.3.459,3.644,3.644,0,0,0,1.682-.382,5.892,5.892,0,0,0,1.452-1.07V45.8Z" transform="translate(-166.441 -33.567)" fill="#061429"/><path d="M259.325,50.5c-.688-1.605-1.452-3.21-2.14-4.815s-1.452-3.21-2.14-4.815c-.229-.535-.459-.994-.688-1.529a13.778,13.778,0,0,1-.611-1.605c-.229-.535-.382-1.07-.611-1.605V37.2a20.047,20.047,0,0,1-.076,2.064c0,.841-.076,1.682-.076,2.6s-.076,1.834-.076,2.752,0,1.758-.076,2.6v1.07a4.037,4.037,0,0,1-.076.994,334262.375,334262.375,0,0,1,1.834-.153v1.07H250v-.764a1.978,1.978,0,0,0,1.07-.306,1.51,1.51,0,0,0,.459-.841c.076-.306.076-.688.153-1.07l.459-10.93V34.37h-1.682V33.3h3.669l4.128,9.554c.229.459.382.994.611,1.452s.382.994.611,1.452a11.758,11.758,0,0,1,.611,1.452h.076c.153-.459.382-.917.612-1.529s.459-1.147.611-1.529c.688-1.758,1.452-3.516,2.217-5.274s1.529-3.592,2.217-5.5h3.592v.764a1.912,1.912,0,0,0-.994.229,1.352,1.352,0,0,0-.535.841,7.886,7.886,0,0,0-.153,1.529l.611,10.93c0,.306.076.535.076.764v.688H270.1v1.07h-5.35v-.764a1.512,1.512,0,0,0,1.07-.382,1.728,1.728,0,0,0,.459-.994,5.06,5.06,0,0,0,0-1.529l-.459-7.949a2.6,2.6,0,0,0-.076-.764,2.6,2.6,0,0,0-.076-.764,2.6,2.6,0,0,0-.076-.764c-.076.076-.076.229-.153.382s-.076.229-.153.382L259.86,50.421h-.535Z" transform="translate(-171.578 -32.153)" fill="#061429"/><path d="M284.567,51.682a2.632,2.632,0,0,1-.076-.688c0-.229-.076-.459-.076-.611a6.968,6.968,0,0,1-1.758,1.3,4.46,4.46,0,0,1-1.987.459,4.08,4.08,0,0,1-2.752-.841A2.617,2.617,0,0,1,277,49.236a2.794,2.794,0,0,1,.688-1.911,5.026,5.026,0,0,1,1.758-1.3,8.6,8.6,0,0,1,2.369-.764,14.074,14.074,0,0,1,2.522-.229V43.58a11.4,11.4,0,0,0-.153-1.605,2.33,2.33,0,0,0-.611-1.223,2.574,2.574,0,0,0-1.529-.535,5.194,5.194,0,0,0-1.452.229,2.254,2.254,0,0,0-1.07.994.661.661,0,0,1,.229.459.969.969,0,0,1,.076.459,1.451,1.451,0,0,1-.229.688.986.986,0,0,1-.841.382.941.941,0,0,1-.764-.382,1.541,1.541,0,0,1-.229-.841,2.088,2.088,0,0,1,.611-1.452,4.554,4.554,0,0,1,1.682-1.07A7.821,7.821,0,0,1,282.5,39.3a3.817,3.817,0,0,1,2.981,1.07,5.054,5.054,0,0,1,.917,3.363v6.191c0,.229-.076.535-.076.841a28309442520901.633,28309442520901.633,0,0,0,1.682-.153v.994h-3.44Zm-.229-5.885a6.366,6.366,0,0,0-1.682.229,10.823,10.823,0,0,0-1.682.535,3.04,3.04,0,0,0-1.223.917,2.2,2.2,0,0,0-.459,1.452,1.436,1.436,0,0,0,.611,1.3,1.929,1.929,0,0,0,1.3.459,3.643,3.643,0,0,0,1.682-.382,5.89,5.89,0,0,0,1.452-1.07V45.8Z" transform="translate(-177.941 -33.567)" fill="#061429"/><path d="M292.053,51.682v-.688a1.512,1.512,0,0,0,1.07-.382,1.494,1.494,0,0,0,.306-1.07c0-.459.076-.917.076-1.529V41.746a2.6,2.6,0,0,1,.076-.764,45309359373266.7,45309359373266.7,0,0,0-1.682.153v-.994a9.3,9.3,0,0,0,1.605-.076,6.2,6.2,0,0,0,.841-.229c.229-.076.306-.229.459-.306h.688v1.452a10.923,10.923,0,0,1,1.147-.841,7.5,7.5,0,0,1,1.376-.611,4.328,4.328,0,0,1,1.376-.229,3.609,3.609,0,0,1,3.057,1.3,6.993,6.993,0,0,1,.994,4.051v5.274a2.6,2.6,0,0,1-.076.764h1.529v.994H300v-.688a1.386,1.386,0,0,0,1.07-.382,1.494,1.494,0,0,0,.306-1.07c0-.459.076-.917.076-1.529V44.65a5.775,5.775,0,0,0-.688-3.134,2.345,2.345,0,0,0-2.064-1.07,3.273,3.273,0,0,0-1.682.459,6.591,6.591,0,0,0-1.376,1.07v7.949a2.6,2.6,0,0,1-.076.764H297.1v.994Z" transform="translate(-181.452 -33.567)" fill="#061429"/><path d="M314.8,50.3a4.742,4.742,0,0,1-2.675-.764,5.084,5.084,0,0,1-1.834-2.14,7.093,7.093,0,0,1-.688-3.21,7.654,7.654,0,0,1,.764-3.516,6.033,6.033,0,0,1,2.217-2.369,5.607,5.607,0,0,1,3.21-.841,5.819,5.819,0,0,1,1.605.229,6.973,6.973,0,0,1,1.223.459V34.093a3.426,3.426,0,0,1,.076-.841,93816.027,93816.027,0,0,1-1.682.153v-.994a9.3,9.3,0,0,0,1.605-.076,4.058,4.058,0,0,0,.841-.229,1.176,1.176,0,0,0,.459-.306h.688V48.157c0,.229-.077.535-.077.841a30351.436,30351.436,0,0,0,1.682-.153v.994h-3.44a2.117,2.117,0,0,1-.076-.688c0-.229-.076-.382-.076-.611a4.558,4.558,0,0,1-1.682,1.223A4.053,4.053,0,0,1,314.8,50.3Zm.841-1.147a3.211,3.211,0,0,0,1.605-.459,3.8,3.8,0,0,0,1.3-1.147V39.29a2.908,2.908,0,0,0-1.3-.611,4.328,4.328,0,0,0-1.376-.229,3.2,3.2,0,0,0-2.064.688,4.409,4.409,0,0,0-1.376,1.911,7.061,7.061,0,0,0-.382,2.9,6.856,6.856,0,0,0,.459,2.6,4.556,4.556,0,0,0,1.223,1.834A2.858,2.858,0,0,0,315.638,49.15Z" transform="translate(-185.623 -31.8)" fill="#061429"/><path d="M326.853,49.463a1.512,1.512,0,0,0,1.07-.382,1.494,1.494,0,0,0,.306-1.07c0-.459.076-.917.076-1.529V40.214c0-.229.076-.535.076-.841a50338.573,50338.573,0,0,1-1.682.153v-.994a9.3,9.3,0,0,0,1.605-.076,4.056,4.056,0,0,0,.841-.229,1.175,1.175,0,0,0,.459-.306h.688V48.469a2.6,2.6,0,0,1-.076.764h1.529v.994h-4.892Zm2.37-13.911a1.588,1.588,0,0,1-.917-.382,1.61,1.61,0,0,1-.382-.994,1.453,1.453,0,0,1,.382-.994,1.029,1.029,0,0,1,.917-.382,1.266,1.266,0,0,1,.917.382,1.61,1.61,0,0,1,.382.994,1.453,1.453,0,0,1-.382.994A1.266,1.266,0,0,1,329.222,35.551Z" transform="translate(-189.652 -32.035)" fill="#061429"/><path d="M334.253,50.947a1.512,1.512,0,0,0,1.07-.382,1.494,1.494,0,0,0,.306-1.07c0-.459.076-.917.076-1.529V41.7a2.6,2.6,0,0,1,.076-.764H334.1V39.94h.764a3.352,3.352,0,0,0,1.452-.229l.688-.459h.688c0,.229.076.535.076.917a10.816,10.816,0,0,0,.076,1.452,4.435,4.435,0,0,1,.994-1.147,9.015,9.015,0,0,1,1.376-.994A4.165,4.165,0,0,1,341.9,39.1a1.877,1.877,0,0,1,1.147.382,1.38,1.38,0,0,1,.535,1.147,1.086,1.086,0,0,1-.153.459,1.123,1.123,0,0,1-.382.459.934.934,0,0,1-.688.229,1.185,1.185,0,0,1-1.07-1.376,2.42,2.42,0,0,0-1.223.306,4.663,4.663,0,0,0-1.223.917A6.358,6.358,0,0,0,337.845,43v6.726a2.6,2.6,0,0,1-.076.764H339.3v.994h-4.892v-.535Z" transform="translate(-191.396 -33.52)" fill="#061429"/><path d="M346.353,49.463a1.512,1.512,0,0,0,1.07-.382,1.494,1.494,0,0,0,.306-1.07c0-.459.076-.917.076-1.529V40.214c0-.229.076-.535.076-.841a82550.4,82550.4,0,0,1-1.682.153v-.994a9.3,9.3,0,0,0,1.605-.076,4.055,4.055,0,0,0,.841-.229,1.175,1.175,0,0,0,.459-.306h.688V48.469a2.6,2.6,0,0,1-.076.764h1.529v.994h-4.892Zm2.293-13.911a1.588,1.588,0,0,1-.917-.382,1.61,1.61,0,0,1-.382-.994,1.453,1.453,0,0,1,.382-.994,1.029,1.029,0,0,1,.917-.382,1.266,1.266,0,0,1,.917.382,1.61,1.61,0,0,1,.382.994,1.453,1.453,0,0,1-.382.994A1.266,1.266,0,0,1,348.646,35.551Z" transform="translate(-194.248 -32.035)" fill="#061429"/><path d="M155.944,69.394a1.833,1.833,0,0,0-1.452.459,1.614,1.614,0,0,0-.459,1.223c0,.535-.076,1.147-.076,1.834V86.438a3.15,3.15,0,0,1-.076.917c.382,0,.688-.076,1.07-.076a5.046,5.046,0,0,0,1.07-.076v1.3H149.6v-.917a2.026,2.026,0,0,0,1.529-.535,1.971,1.971,0,0,0,.459-1.223c0-.535.076-1.147.076-1.758V70.54a4.038,4.038,0,0,1,.076-.994c-.382,0-.688.076-1.07.076s-.688.076-1.07.076V68.4h6.421v.994Z" transform="translate(-147.918 -40.425)" fill="#061429"/><path d="M159.429,90.152v-.841a1.406,1.406,0,0,0,1.223-.459,1.945,1.945,0,0,0,.382-1.223,13.547,13.547,0,0,0,.076-1.834V78.3c0-.306.076-.611.076-.917-.382,0-.688.076-.994.076s-.688.076-.994.076V76.317a13.027,13.027,0,0,0,1.911-.076,2.54,2.54,0,0,0,.994-.306,1.371,1.371,0,0,0,.535-.382h.841a.97.97,0,0,0,.076.459,1.9,1.9,0,0,0,.076.611v.688a15.5,15.5,0,0,1,1.376-.994,7.255,7.255,0,0,1,1.605-.688A6.366,6.366,0,0,1,168.3,75.4a4.356,4.356,0,0,1,3.669,1.529,8.4,8.4,0,0,1,1.146,4.892v6.344c0,.306-.076.611-.076.917a33426.5,33426.5,0,0,0,1.834-.153v1.147h-5.885v-.841a1.407,1.407,0,0,0,1.223-.459,1.945,1.945,0,0,0,.382-1.223,13.542,13.542,0,0,0,.076-1.834V81.668a6.961,6.961,0,0,0-.841-3.745,2.7,2.7,0,0,0-2.446-1.223,4.54,4.54,0,0,0-1.987.535,5.807,5.807,0,0,0-1.682,1.3v9.478c0,.306-.076.611-.076.917a222846.951,222846.951,0,0,1,1.834-.153v1.147h-6.038Z" transform="translate(-150.181 -42.074)" fill="#061429"/><path d="M185.415,89.5a8.423,8.423,0,0,1-1.376-.153,3.247,3.247,0,0,1-1.3-.764,4.036,4.036,0,0,1-.917-1.605,8.8,8.8,0,0,1-.382-2.752l.076-8.331H179.3V74.674a3.078,3.078,0,0,0,1.529-.535,5.012,5.012,0,0,0,1.376-1.452,6.486,6.486,0,0,0,.841-1.987h.994v4.051h4.815V75.9l-4.815.076-.076,7.949a9.408,9.408,0,0,0,.229,2.217,2.907,2.907,0,0,0,.688,1.376,1.8,1.8,0,0,0,1.3.459,2.756,2.756,0,0,0,1.529-.459,4,4,0,0,0,1.223-1.3l.764.611a15.187,15.187,0,0,1-1.223,1.529,5.84,5.84,0,0,1-1.223.841,9.272,9.272,0,0,1-1.07.382A2.867,2.867,0,0,0,185.415,89.5Z" transform="translate(-154.917 -40.967)" fill="#061429"/><path d="M199.832,90.587a7.179,7.179,0,0,1-3.592-.917,6.561,6.561,0,0,1-2.522-2.675,8.349,8.349,0,0,1-.917-4.051,7.763,7.763,0,0,1,.917-3.745,7.514,7.514,0,0,1,2.522-2.828,6.994,6.994,0,0,1,3.822-1.07,6.732,6.732,0,0,1,2.217.382,5.714,5.714,0,0,1,1.834,1.147,5.978,5.978,0,0,1,1.3,1.987,7.833,7.833,0,0,1,.459,2.828l-10.089.153a14.149,14.149,0,0,0,.459,3.822,4.893,4.893,0,0,0,1.529,2.522,4.4,4.4,0,0,0,2.752.917,5.139,5.139,0,0,0,1.834-.306,12.436,12.436,0,0,0,1.758-.841,5.016,5.016,0,0,0,1.3-1.223l.688.611a6.294,6.294,0,0,1-1.834,1.911,9.808,9.808,0,0,1-2.217,1.07A8.1,8.1,0,0,1,199.832,90.587Zm-3.975-9.937H203.2a5.7,5.7,0,0,0-.306-1.987,4.364,4.364,0,0,0-.994-1.605,2.789,2.789,0,0,0-1.834-.611,3.7,3.7,0,0,0-2.752.994A5.721,5.721,0,0,0,195.857,80.65Z" transform="translate(-158.099 -42.051)" fill="#061429"/><path d="M211.429,89.335a1.406,1.406,0,0,0,1.223-.459,1.945,1.945,0,0,0,.382-1.223,13.545,13.545,0,0,0,.076-1.834V78.328c0-.306.076-.611.076-.917a60620.254,60620.254,0,0,0-1.987.153V76.417h.917a4.12,4.12,0,0,0,1.682-.229,1.951,1.951,0,0,0,.764-.535h.841c0,.306.076.688.076,1.147a14.182,14.182,0,0,0,.076,1.682,9.11,9.11,0,0,1,1.147-1.376,8.184,8.184,0,0,1,1.682-1.147,4.459,4.459,0,0,1,1.987-.459,2.134,2.134,0,0,1,1.376.459,1.679,1.679,0,0,1,.611,1.376,1.945,1.945,0,0,1-.153.535,1.6,1.6,0,0,1-.459.611,1.373,1.373,0,0,1-.841.229,1.037,1.037,0,0,1-.994-.535,1.37,1.37,0,0,1-.306-1.07,2.594,2.594,0,0,0-1.452.382,6.473,6.473,0,0,0-1.452,1.07,5.445,5.445,0,0,0-1.147,1.682v8.026c0,.306-.076.611-.076.917a51423.956,51423.956,0,0,0,1.834-.153v1.147h-5.885v-.841Z" transform="translate(-162.435 -42.098)" fill="#061429"/><path d="M225.829,90.152v-.841a1.407,1.407,0,0,0,1.223-.459,1.945,1.945,0,0,0,.382-1.223,13.55,13.55,0,0,0,.076-1.834V78.3c0-.306.076-.611.076-.917-.382,0-.688.076-.994.076s-.688.076-.994.076V76.317a13.027,13.027,0,0,0,1.911-.076,2.54,2.54,0,0,0,.994-.306,1.371,1.371,0,0,0,.535-.382h.841a.97.97,0,0,0,.076.459,1.9,1.9,0,0,0,.076.611v.688a15.5,15.5,0,0,1,1.376-.994,7.255,7.255,0,0,1,1.605-.688A6.366,6.366,0,0,1,234.7,75.4a4.356,4.356,0,0,1,3.669,1.529,8.4,8.4,0,0,1,1.147,4.892v6.344c0,.306-.076.611-.076.917a41782.189,41782.189,0,0,0,1.834-.153v1.147h-5.885v-.841a1.406,1.406,0,0,0,1.223-.459,1.945,1.945,0,0,0,.382-1.223,13.55,13.55,0,0,0,.076-1.834V81.668a6.96,6.96,0,0,0-.841-3.745,2.7,2.7,0,0,0-2.446-1.223,4.54,4.54,0,0,0-1.987.535,5.808,5.808,0,0,0-1.682,1.3v9.478c0,.306-.076.611-.076.917a334278.709,334278.709,0,0,0,1.834-.153v1.147h-6.038Z" transform="translate(-165.828 -42.074)" fill="#061429"/><path d="M255.619,90.081c-.076-.306-.076-.611-.153-.841,0-.229-.076-.535-.076-.764A7.91,7.91,0,0,1,253.25,90a5.121,5.121,0,0,1-2.369.535,4.374,4.374,0,0,1-3.21-.994A3.3,3.3,0,0,1,246.6,87.1a3.529,3.529,0,0,1,.841-2.293,6.827,6.827,0,0,1,2.14-1.605,15.328,15.328,0,0,1,2.828-.917,13.165,13.165,0,0,1,2.981-.306V80.221a14.894,14.894,0,0,0-.153-1.911,2.449,2.449,0,0,0-.764-1.452,2.517,2.517,0,0,0-1.834-.611,4.357,4.357,0,0,0-1.682.306,2.4,2.4,0,0,0-1.3,1.147,1.232,1.232,0,0,1,.306.535,1.492,1.492,0,0,1,.076.535,1.236,1.236,0,0,1-.306.764.941.941,0,0,1-.994.382,1.266,1.266,0,0,1-.917-.382,1.536,1.536,0,0,1-.306-.994,2.322,2.322,0,0,1,.764-1.758,4.643,4.643,0,0,1,1.987-1.223,8.579,8.579,0,0,1,2.9-.459,4.68,4.68,0,0,1,3.592,1.3,5.964,5.964,0,0,1,1.146,4.051v7.338c0,.306-.076.688-.076,1.07.382,0,.688-.076.994-.076s.688-.076.994-.076v1.223h-4.2Zm-.306-7.032a10.031,10.031,0,0,0-2.064.229,15.1,15.1,0,0,0-1.987.611,4.4,4.4,0,0,0-1.452,1.147,2.515,2.515,0,0,0,.153,3.287,2.2,2.2,0,0,0,1.529.535,4.551,4.551,0,0,0,2.064-.459,8.139,8.139,0,0,0,1.758-1.223V83.049Z" transform="translate(-170.777 -42.004)" fill="#061429"/><path d="M270.456,90.61a7.963,7.963,0,0,1-2.522-.382,6.875,6.875,0,0,1-1.834-.841l.076.994h-1.223l-.153-4.968h.917a3.747,3.747,0,0,0,.688,2.14A4.235,4.235,0,0,0,270,89.54a4.45,4.45,0,0,0,1.452-.229,2.568,2.568,0,0,0,1.223-.764,2.07,2.07,0,0,0,0-2.6,3.68,3.68,0,0,0-1.223-.917c-.535-.229-1.07-.535-1.682-.764s-1.147-.459-1.758-.688a6.709,6.709,0,0,1-1.605-.917,4.679,4.679,0,0,1-1.146-1.3,3.631,3.631,0,0,1-.459-1.834,4.24,4.24,0,0,1,.229-1.3,4.144,4.144,0,0,1,.764-1.376,3.9,3.9,0,0,1,1.529-1.07,5.67,5.67,0,0,1,2.446-.382,7.931,7.931,0,0,1,1.758.229,5.433,5.433,0,0,1,1.834.994l-.076-1.07h1.223V80.6h-.917a7.761,7.761,0,0,0-.459-1.911,4.727,4.727,0,0,0-1.147-1.529A3.407,3.407,0,0,0,270,76.546a2.8,2.8,0,0,0-2.064.688,1.88,1.88,0,0,0-.764,1.529,1.9,1.9,0,0,0,.535,1.452,4.078,4.078,0,0,0,1.452.994c.611.306,1.223.535,1.911.841a18.3,18.3,0,0,1,2.14.994,6.016,6.016,0,0,1,1.682,1.376,3.131,3.131,0,0,1,.688,2.14,3.4,3.4,0,0,1-.764,2.369,5.272,5.272,0,0,1-1.834,1.376A15.11,15.11,0,0,1,270.456,90.61Z" transform="translate(-175.066 -42.074)" fill="#061429"/><path d="M280.029,87.426a1.406,1.406,0,0,0,1.223-.459,1.945,1.945,0,0,0,.382-1.223,13.55,13.55,0,0,0,.076-1.834V76.5c0-.306.076-.611.076-.994-.306,0-.688.076-.994.076s-.688.076-.994.076V74.432a14.2,14.2,0,0,0,1.987-.076,3,3,0,0,0,1.07-.306.975.975,0,0,0,.535-.382h.841V86.279c0,.306-.076.611-.076.917a27856.086,27856.086,0,0,0,1.834-.153V88.19h-5.885v-.764Zm2.752-16.586a1.509,1.509,0,0,1-1.07-.459,1.86,1.86,0,0,1,0-2.446,1.606,1.606,0,0,1,1.07-.535,1.157,1.157,0,0,1,1.07.535,1.86,1.86,0,0,1,0,2.446A1.549,1.549,0,0,1,282.781,70.839Z" transform="translate(-178.6 -40.189)" fill="#061429"/><path d="M295.961,90.61a7.468,7.468,0,0,1-3.669-.917,6.539,6.539,0,0,1-2.6-2.6,7.6,7.6,0,0,1-.994-3.745,8.561,8.561,0,0,1,.917-4.051,7.157,7.157,0,0,1,2.6-2.828,6.663,6.663,0,0,1,3.669-1.07,6.788,6.788,0,0,1,3.669.994,7.063,7.063,0,0,1,2.6,2.6,6.869,6.869,0,0,1,.994,3.745,8.159,8.159,0,0,1-.994,4.051,7.939,7.939,0,0,1-2.6,2.9A7.178,7.178,0,0,1,295.961,90.61Zm.229-1.147a3.647,3.647,0,0,0,2.446-.841,5.333,5.333,0,0,0,1.3-2.217,12.1,12.1,0,0,0,.382-2.9,14.074,14.074,0,0,0-.229-2.522,7.37,7.37,0,0,0-.764-2.293,4.615,4.615,0,0,0-1.3-1.605,3.407,3.407,0,0,0-1.987-.611,3.646,3.646,0,0,0-2.446.841,5.463,5.463,0,0,0-1.376,2.217,9.372,9.372,0,0,0-.459,2.981,11.921,11.921,0,0,0,.459,3.363,5.884,5.884,0,0,0,1.529,2.6A2.916,2.916,0,0,0,296.191,89.464Z" transform="translate(-180.698 -42.074)" fill="#061429"/><path d="M308.929,90.152v-.841a1.406,1.406,0,0,0,1.223-.459,1.945,1.945,0,0,0,.382-1.223,13.545,13.545,0,0,0,.076-1.834V78.3c0-.306.076-.611.076-.917-.382,0-.688.076-.994.076s-.688.076-.994.076V76.317a13.027,13.027,0,0,0,1.911-.076,2.54,2.54,0,0,0,.994-.306,1.371,1.371,0,0,0,.535-.382h.841a.969.969,0,0,0,.076.459,1.9,1.9,0,0,0,.076.611v.688a15.509,15.509,0,0,1,1.376-.994,7.257,7.257,0,0,1,1.605-.688A6.366,6.366,0,0,1,317.8,75.4a4.356,4.356,0,0,1,3.669,1.529,8.4,8.4,0,0,1,1.147,4.892v6.344c0,.306-.076.611-.076.917a37141.41,37141.41,0,0,0,1.834-.153v1.147h-5.885v-.841a1.407,1.407,0,0,0,1.223-.459,1.945,1.945,0,0,0,.382-1.223,13.539,13.539,0,0,0,.076-1.834V81.668a6.961,6.961,0,0,0-.841-3.745,2.7,2.7,0,0,0-2.446-1.223,4.54,4.54,0,0,0-1.987.535,5.808,5.808,0,0,0-1.682,1.3v9.478c0,.306-.076.611-.076.917a167131.071,167131.071,0,0,0,1.834-.153v1.147h-6.038Z" transform="translate(-185.411 -42.074)" fill="#061429"/><path d="M338.619,90.081c-.076-.306-.076-.611-.153-.841,0-.229-.076-.535-.076-.764A7.91,7.91,0,0,1,336.25,90a5.121,5.121,0,0,1-2.369.535,4.374,4.374,0,0,1-3.21-.994A3.3,3.3,0,0,1,329.6,87.1a3.529,3.529,0,0,1,.841-2.293,6.827,6.827,0,0,1,2.14-1.605,15.328,15.328,0,0,1,2.828-.917,13.165,13.165,0,0,1,2.981-.306V80.221a14.894,14.894,0,0,0-.153-1.911,2.448,2.448,0,0,0-.764-1.452,2.517,2.517,0,0,0-1.834-.611,4.357,4.357,0,0,0-1.682.306,2.4,2.4,0,0,0-1.3,1.147,1.232,1.232,0,0,1,.306.535,1.492,1.492,0,0,1,.076.535,1.235,1.235,0,0,1-.306.764.941.941,0,0,1-.994.382,1.266,1.266,0,0,1-.917-.382,1.536,1.536,0,0,1-.306-.994,2.322,2.322,0,0,1,.764-1.758,4.643,4.643,0,0,1,1.987-1.223,8.579,8.579,0,0,1,2.9-.459,4.68,4.68,0,0,1,3.592,1.3,5.964,5.964,0,0,1,1.147,4.051v7.338c0,.306-.076.688-.076,1.07.382,0,.688-.076.994-.076s.688-.076.994-.076v1.223h-4.2Zm-.229-7.032a10.031,10.031,0,0,0-2.064.229,15.1,15.1,0,0,0-1.987.611,4.4,4.4,0,0,0-1.452,1.147,2.515,2.515,0,0,0,.153,3.287,2.2,2.2,0,0,0,1.529.535,4.551,4.551,0,0,0,2.064-.459,8.14,8.14,0,0,0,1.758-1.223V83.049Z" transform="translate(-190.336 -42.004)" fill="#061429"/><path d="M347.129,87.214a1.406,1.406,0,0,0,1.223-.459,1.945,1.945,0,0,0,.382-1.223,13.55,13.55,0,0,0,.076-1.834V69.328a4.7,4.7,0,0,1,.076-.994,4.037,4.037,0,0,0-.994.076,4.358,4.358,0,0,0-.994.076V67.264a14.2,14.2,0,0,0,1.987-.076,3,3,0,0,0,1.07-.306.975.975,0,0,0,.535-.382h.841V86.144c0,.306-.077.611-.077.917a334262.256,334262.256,0,0,0,1.834-.153v1.147h-5.886v-.841Z" transform="translate(-194.413 -39.977)" fill="#061429"/></g><path d="M48.612,97.225A48.612,48.612,0,1,0,0,48.612,48.612,48.612,0,0,0,48.612,97.225ZM60.995,29.886H75.288v.994h-2.9V66.269h2.9v.994H58.931v-.994h2.981v-33.4h-.229l-8.026,34.4h-6.65s-10.013-37.377-9.86-37.377h10.4L54.651,57.4Zm-24.459,0h-14.6v.994h4.051V58.014a28.36,28.36,0,0,1-.611,7.338,1.426,1.426,0,0,1-.382.764l-.229.229a3.72,3.72,0,0,1-1.529.764c0,.076,6.268.841,10.013-2.446,2.828-2.446,3.287-6.191,3.287-10.548ZM15.975,66.422A5.274,5.274,0,1,0,10.7,61.148,5.274,5.274,0,0,0,15.975,66.422ZM86.448,35.16a5.274,5.274,0,1,1-5.274-5.274A5.274,5.274,0,0,1,86.448,35.16Z" transform="translate(0 0)" fill-rule="evenodd" fill="url(#a)"/></svg>